<?xml version="1.0" encoding="UTF-8" standalone="no"?>
<!-- Created with Inkscape (http://www.inkscape.org/) -->

<svg
   width="64pt"
   height="64pt"
   viewBox="0 0 22.577778 22.577778"
   version="1.1"
   id="svg831"
   inkscape:version="1.1.1 (3bf5ae0d25, 2021-09-20)"
   sodipodi:docname="#1.svg"
   inkscape:export-filename="C:\Users\User\Desktop\Done Januari II\E\19 - Cafe Building.png"
   inkscape:export-xdpi="576"
   inkscape:export-ydpi="576"
   xmlns:inkscape="http://www.inkscape.org/namespaces/inkscape"
   xmlns:sodipodi="http://sodipodi.sourceforge.net/DTD/sodipodi-0.dtd"
   xmlns="http://www.w3.org/2000/svg"
   xmlns:svg="http://www.w3.org/2000/svg"
   xmlns:rdf="http://www.w3.org/1999/02/22-rdf-syntax-ns#"
   xmlns:cc="http://creativecommons.org/ns#"
   xmlns:dc="http://purl.org/dc/elements/1.1/">
  <defs
     id="defs825">
    <pattern
       id="EMFhbasepattern"
       patternUnits="userSpaceOnUse"
       width="6"
       height="6"
       x="0"
       y="0" />
    <pattern
       id="EMFhbasepattern-9"
       patternUnits="userSpaceOnUse"
       width="6"
       height="6"
       x="0"
       y="0" />
    <pattern
       id="EMFhbasepattern-0"
       patternUnits="userSpaceOnUse"
       width="6"
       height="6"
       x="0"
       y="0" />
    <pattern
       id="EMFhbasepattern-7"
       patternUnits="userSpaceOnUse"
       width="6"
       height="6"
       x="0"
       y="0" />
    <pattern
       id="EMFhbasepattern-2"
       patternUnits="userSpaceOnUse"
       width="6"
       height="6"
       x="0"
       y="0" />
    <pattern
       id="EMFhbasepattern-98"
       patternUnits="userSpaceOnUse"
       width="6"
       height="6"
       x="0"
       y="0" />
    <pattern
       id="EMFhbasepattern-6"
       patternUnits="userSpaceOnUse"
       width="6"
       height="6"
       x="0"
       y="0" />
    <pattern
       id="EMFhbasepattern-01"
       patternUnits="userSpaceOnUse"
       width="6"
       height="6"
       x="0"
       y="0" />
    <pattern
       id="EMFhbasepattern-07"
       patternUnits="userSpaceOnUse"
       width="6"
       height="6"
       x="0"
       y="0" />
    <pattern
       id="EMFhbasepattern-8"
       patternUnits="userSpaceOnUse"
       width="6"
       height="6"
       x="0"
       y="0" />
    <pattern
       id="EMFhbasepattern-4"
       patternUnits="userSpaceOnUse"
       width="6"
       height="6"
       x="0"
       y="0" />
    <pattern
       id="EMFhbasepattern-40"
       patternUnits="userSpaceOnUse"
       width="6"
       height="6"
       x="0"
       y="0" />
    <pattern
       id="EMFhbasepattern-08"
       patternUnits="userSpaceOnUse"
       width="6"
       height="6"
       x="0"
       y="0" />
    <pattern
       id="EMFhbasepattern-04"
       patternUnits="userSpaceOnUse"
       width="6"
       height="6"
       x="0"
       y="0" />
    <pattern
       id="EMFhbasepattern-014"
       patternUnits="userSpaceOnUse"
       width="6"
       height="6"
       x="0"
       y="0" />
    <pattern
       id="EMFhbasepattern-27"
       patternUnits="userSpaceOnUse"
       width="6"
       height="6"
       x="0"
       y="0" />
    <pattern
       id="EMFhbasepattern-09"
       patternUnits="userSpaceOnUse"
       width="6"
       height="6"
       x="0"
       y="0" />
    <pattern
       id="EMFhbasepattern-5"
       patternUnits="userSpaceOnUse"
       width="6"
       height="6"
       x="0"
       y="0" />
    <pattern
       id="EMFhbasepattern-018"
       patternUnits="userSpaceOnUse"
       width="6"
       height="6"
       x="0"
       y="0" />
  </defs>
  <sodipodi:namedview
     id="base"
     pagecolor="#ffffff"
     bordercolor="#666666"
     borderopacity="1.0"
     inkscape:pageopacity="0.0"
     inkscape:pageshadow="2"
     inkscape:zoom="6.4882571"
     inkscape:cx="30.285483"
     inkscape:cy="42.61545"
     inkscape:document-units="pt"
     inkscape:current-layer="layer1"
     showgrid="false"
     units="pt"
     inkscape:window-width="1920"
     inkscape:window-height="1001"
     inkscape:window-x="-9"
     inkscape:window-y="41"
     inkscape:window-maximized="1"
     inkscape:pagecheckerboard="true"
     inkscape:showpageshadow="false"
     inkscape:object-paths="true"
     inkscape:snap-intersection-paths="true"
     inkscape:snap-smooth-nodes="true"
     inkscape:snap-midpoints="true"
     showguides="true"
     inkscape:snap-bbox="true"
     inkscape:bbox-nodes="true"
     inkscape:snap-nodes="false"
     inkscape:snap-global="true">
    <inkscape:grid
       type="xygrid"
       id="grid1378" />
    <sodipodi:guide
       position="0.97013831,21.607643"
       orientation="78.000048,0"
       id="guide1380"
       inkscape:locked="false" />
    <sodipodi:guide
       position="0.97013831,0.97013129"
       orientation="0,78.000005"
       id="guide1382"
       inkscape:locked="false" />
    <sodipodi:guide
       position="21.607639,0.97013129"
       orientation="-78.000048,0"
       id="guide1384"
       inkscape:locked="false" />
    <sodipodi:guide
       position="21.607639,21.607643"
       orientation="0,-78.000005"
       id="guide1386"
       inkscape:locked="false" />
  </sodipodi:namedview>
  <metadata
     id="metadata828">
    <rdf:RDF>
      <cc:Work
         rdf:about="">
        <dc:format>image/svg+xml</dc:format>
        <dc:type
           rdf:resource="http://purl.org/dc/dcmitype/StillImage" />
      </cc:Work>
    </rdf:RDF>
  </metadata>
  <g
     inkscape:label="Icon"
     inkscape:groupmode="layer"
     id="layer1"
     transform="translate(0,-274.42223)">
    <g
       id="g21705"
       style="display:inline;stroke-width:0.793511"
       transform="matrix(1.2602214,0,0,1.2602214,0.61953782,-77.903944)">
      <g
         id="g1600"
         style="stroke-width:0.793511">
        <path
           style="color:#000000;fill:#fec872;stroke-width:0.793511;stroke-linecap:round;stroke-linejoin:round;-inkscape-stroke:none"
           d="m 1.9707031,283.23047 c -0.7675668,0 -1.39453122,0.62892 -1.39453123,1.39648 v 7.91602 a 0.26460996,0.26460996 0 0 0 0.26367188,0.26367 H 4.2265625 12.714844 c 0.767568,0 1.394531,-0.62697 1.394531,-1.39453 v -6.78516 c 0,-0.76756 -0.626965,-1.39648 -1.394531,-1.39648 z"
           id="path2237" />
        <path
           style="color:#000000;fill:#fed883;fill-opacity:1;stroke-width:0.793511;stroke-linecap:round;stroke-linejoin:round;-inkscape-stroke:none"
           d="m 2.8066406,284.36133 c -0.6046298,0 -1.0996046,0.49693 -1.0996094,1.10156 v 5.93555 a 0.26460996,0.26460996 0 0 0 0.2636719,0.26562 h 3.3867188 6.5078121 c 0.604631,0 1.101559,-0.49693 1.101563,-1.10156 v -5.09961 c -4e-6,-0.60463 -0.496932,-1.10156 -1.101563,-1.10156 z"
           id="path2512" />
        <path
           style="color:#000000;fill:#fec872;fill-opacity:1;stroke-width:0.793511;stroke-linecap:round;stroke-linejoin:round;-inkscape-stroke:none"
           d="m 15.541016,286.90625 c -0.210651,0 -0.371669,0.0842 -0.507813,0.1543 -0.07536,0.0388 -0.08947,0.0511 -0.132812,0.0781 l -0.996094,-0.22656 a 0.26460996,0.26460996 0 0 0 -0.324219,0.25781 v 1.69727 a 0.26460996,0.26460996 0 0 0 0.324219,0.25781 l 0.994141,-0.22461 c 0.04333,0.0271 0.05858,0.0389 0.134765,0.0781 0.136144,0.0701 0.297166,0.15234 0.507813,0.15234 0.611419,0 1.113281,-0.4999 1.113281,-1.11133 0,-0.61142 -0.501858,-1.11328 -1.113281,-1.11328 z"
           id="path1912" />
        <path
           style="color:#000000;fill:#ca7d02;fill-opacity:1;stroke-width:0.793511;stroke-linecap:round;stroke-linejoin:round;-inkscape-stroke:none"
           d="m 2.8066406,284.89062 h 9.0585934 c 0.318651,0 0.572264,0.25362 0.572266,0.57227 v 5.09961 c -2e-6,0.31865 -0.253615,0.57227 -0.572266,0.57227 H 5.3574219 2.234375 v -5.67188 c 2.5e-6,-0.31865 0.2536161,-0.57227 0.5722656,-0.57227 z"
           id="path2518" />
        <path
           id="path21436"
           style="color:#000000;fill:#fec872;stroke-width:2.9991;stroke-linecap:round;stroke-linejoin:round;-inkscape-stroke:none"
           d="m 36.251953,26.78125 -3.203125,5.550781 c -0.275083,0.478932 -0.109809,1.090183 0.369141,1.365235 0.478932,0.275082 1.090182,0.109808 1.365234,-0.369141 l 3.203125,-5.550781 c 0.275083,-0.478932 0.10981,-1.090183 -0.36914,-1.365235 -0.607328,-0.326631 -1.080223,-0.03388 -1.365235,0.369141 z m 4.769531,0.287112 -5.33789,9.25 c -0.276397,0.476888 -0.114787,1.087509 0.361328,1.365235 0.477321,0.277724 1.089405,0.115959 1.367187,-0.361328 l 5.34375,-9.257813 c 0.275082,-0.478932 0.109809,-1.090182 -0.36914,-1.365234 -0.606087,-0.300207 -1.024034,-0.111767 -1.365235,0.36914 z"
           transform="matrix(0.26458334,0,0,0.26458334,0,280.06666)"
           sodipodi:nodetypes="cccccccccccccc" />
        <path
           style="color:#000000;fill:#ececec;stroke-width:0.793511;stroke-linecap:round;stroke-linejoin:round;-inkscape-stroke:none"
           d="m 6.5839844,286.40143 -3.8242188,3.71185 c -0.1025624,0.1032 -0.1025624,0.26985 0,0.37305 l 1.0429688,1.04297 c 0.1032016,0.10256 0.2698452,0.10256 0.3730468,0 0.7031457,-0.70315 1.5256904,-1.70793 2.1731565,-2.66797 0.3237331,-0.48002 0.5663452,-0.94598 0.6910313,-1.38086 0.1246862,-0.43488 0.2076203,-0.77443 -0.096985,-1.07904 -0.1032016,-0.10256 -0.2557984,-0.10256 -0.3589996,0 z"
           id="path1711"
           sodipodi:nodetypes="cccccsscc" />
        <path
           style="color:#000000;fill:#734845;stroke-width:0.793511;stroke-linecap:round;stroke-linejoin:round;-inkscape-stroke:none"
           d="m 2.0644531,290.80859 -1.56640622,1.56446 c -0.29312184,0.29312 -0.29312251,0.77523 0,1.06836 l 0.17382812,0.17382 c 0.29312319,0.29313 0.7771893,0.29313 1.0703125,0 l 1.5644531,-1.56445 a 0.26460996,0.26460996 0 0 0 0,-0.37305 L 2.4375,290.80859 a 0.26460996,0.26460996 0 0 0 -0.3730469,0 z"
           id="path1327" />
        <path
           id="path59838"
           style="color:#000000;fill:#5e3a38;fill-opacity:1;stroke-width:0.793511;stroke-linecap:round;stroke-linejoin:round;-inkscape-stroke:none"
           d="m 1.9864423,290.88668 0.7911663,0.79117 c 0.1025955,0.10321 0.1025955,0.26989 0,0.3731 l -1.5647625,1.56425 c -0.078753,0.0788 -0.1713553,0.13616 -0.27026763,0.1726 0.26914793,0.099 0.58518403,0.0417 0.79943433,-0.1726 l 1.5647625,-1.56425 c 0.1025955,-0.10321 0.1025955,-0.26989 0,-0.3731 l -0.8691975,-0.8692 z"
           sodipodi:nodetypes="cccccccccc" />
        <path
           id="path52614"
           style="color:#000000;fill:#cccccc;fill-opacity:1;stroke-width:0.793511;stroke-linecap:round;stroke-linejoin:round;-inkscape-stroke:none"
           d="m 6.5840945,286.40134 -0.083199,0.0832 c 0.2329773,0.30035 0.2362769,0.59916 0.1224733,0.99609 -0.124686,0.43488 -0.3816501,0.90077 -0.7053832,1.38079 -0.6240095,0.92526 -1.5014099,1.89121 -2.1936647,2.58951 l 0.078548,0.0786 c 0.1032082,0.1026 0.2698956,0.1026 0.3731038,0 0.7031458,-0.70315 1.6237133,-1.70802 2.2711794,-2.66806 0.323733,-0.48002 0.4683225,-0.94591 0.5930084,-1.38079 0.1246863,-0.43488 0.2216426,-0.77468 -0.082962,-1.07929 -0.11212,-0.11654 -0.2814924,-0.0813 -0.373104,-5e-5 z"
           sodipodi:nodetypes="ccsscccsscc" />
        <path
           style="color:#000000;fill:#66342d;stroke-width:0.793511;stroke-linecap:round;stroke-linejoin:round;-inkscape-stroke:none"
           d="m 2.5859375,289.93945 -0.6953125,0.69532 a 0.26460996,0.26460996 0 0 0 0,0.37304 l 1.2167969,1.2168 a 0.26460996,0.26460996 0 0 0 0.3730469,0 l 0.6953124,-0.69531 a 0.26460996,0.26460996 0 0 0 0,-0.37305 l -1.2167968,-1.2168 a 0.26460996,0.26460996 0 0 0 -0.3730469,0 z"
           id="path1519" />
        <path
           id="path6409"
           style="color:#000000;fill:#f5b84a;fill-opacity:1;stroke-width:2.9991;stroke-linecap:round;stroke-linejoin:round;-inkscape-stroke:none"
           d="m 7.4492188,11.957031 c -1.9589253,0 -3.6736769,1.086458 -4.5820313,2.683594 0.7639096,-0.433087 1.6455235,-0.683594 2.5820313,-0.683594 H 46.056641 c 2.901036,0 5.269531,2.378283 5.269531,5.279297 v 25.644531 c 0,0.939479 -0.248994,1.822301 -0.683594,2.587891 1.59958,-0.907104 2.683594,-2.625531 2.683594,-4.587891 V 17.236328 c 0,-2.901014 -2.368495,-5.279297 -5.269531,-5.279297 z"
           transform="matrix(0.26458334,0,0,0.26458334,0,280.06666)" />
        <path
           id="path37019"
           style="color:#000000;fill:#f5b84a;fill-opacity:1;stroke-width:0.793511;stroke-linecap:round;stroke-linejoin:round;-inkscape-stroke:none"
           d="m 13.904061,287.4414 0.996322,0.22635 c 0.185717,-0.13188 0.445513,-0.2232 0.640788,-0.23252 0.52047,0 0.961362,0.36371 1.081071,0.84905 0.172282,-0.88382 -0.49496,-1.38523 -1.08107,-1.37821 -0.246674,0.007 -0.453036,0.0961 -0.640788,0.23251 l -0.996322,-0.22634 z"
           sodipodi:nodetypes="cccccccc" />
        <path
           id="path41970"
           style="color:#000000;fill:#b57002;fill-opacity:1;stroke-width:0.793511;stroke-linecap:round;stroke-linejoin:round;-inkscape-stroke:none"
           d="m 2.8065471,284.89066 c -0.3048519,0 -0.5498318,0.2321 -0.5705078,0.53123 2.5476229,-0.004 5.104093,-0.002 7.6548298,-0.002 1.1142059,0 2.0174479,0.90324 2.0174479,2.01745 -0.0022,1.23047 0.004,2.468 -0.0021,3.69536 0.299124,-0.0207 0.531232,-0.26514 0.531234,-0.56999 v -5.09995 c -2e-6,-0.31865 -0.253407,-0.57205 -0.572058,-0.57205 z"
           sodipodi:nodetypes="ccccccccc" />
        <path
           id="path54649"
           style="color:#000000;fill:#592f28;fill-opacity:1;stroke-width:0.793511;stroke-linecap:round;stroke-linejoin:round;-inkscape-stroke:none"
           d="m 2.5858888,289.93944 -0.078032,0.078 1.1389485,1.13895 c 0.1026021,0.10321 0.1026021,0.2699 0,0.37311 l -0.6175333,0.61701 0.078031,0.078 c 0.1032082,0.1026 0.2698956,0.1026 0.3731038,0 l 0.6955648,-0.69504 c 0.1026021,-0.10321 0.1026021,-0.2699 0,-0.37311 l -1.21698,-1.21698 c -0.1251772,-0.11376 -0.2615752,-0.0926 -0.3731028,6e-5 z"
           sodipodi:nodetypes="ccccccccccc" />
      </g>
      <path
         id="rect16551"
         style="color:#000000;display:inline;fill:#000000;stroke-width:0.793511;stroke-linecap:round;stroke-linejoin:round;-inkscape-stroke:none"
         d="m 13.589877,287.23625 c 0.02696,0.10851 0.119221,0.18836 0.230477,0.19947 l 1.062459,0.24185 c 0.237162,0.0484 0.32786,-0.24969 0.658358,-0.24185 0.325439,0 0.583943,0.2585 0.583943,0.58394 0,0.32545 -0.2585,0.58188 -0.583943,0.58188 -0.240261,0.0154 -0.436982,-0.29314 -0.658358,-0.2403 l -1.095541,0.24805 c -0.120474,0.0278 -0.205658,0.13527 -0.205155,0.2589 l -0.0021,2.54403 c 0,0.48158 -0.383478,0.86507 -0.865063,0.86507 H 4.2266154 c -0.1469337,-5.9e-4 -0.2661917,0.11868 -0.2656168,0.26561 5.821e-4,0.14613 0.1194911,0.26412 0.2656168,0.26355 h 8.4883716 c 0.767567,0 1.39423,-0.62667 1.39423,-1.39423 v -2.33371 l 0.789099,-0.17828 c 0.187011,0.13107 0.407404,0.23221 0.642855,0.23048 0.611419,0 1.11311,-0.49962 1.11311,-1.11105 0,-0.61142 -0.501687,-1.11362 -1.11311,-1.11362 -0.300432,0.007 -0.460994,0.0892 -0.640788,0.23254 l -0.791166,-0.17983 v -2.33164 c 0,-0.76756 -0.626665,-1.39682 -1.39423,-1.39682 H 1.9709392 c -0.7675668,0 -1.39474696,0.62926 -1.39474696,1.39682 v 6.16758 c -5.715e-4,0.14612 0.11742405,0.26504 0.2635498,0.26561 0.14612575,-5.8e-4 0.26412166,-0.11949 0.26354986,-0.26561 v -6.16758 c 0,-0.48157 0.386064,-0.86714 0.8676473,-0.86714 H 12.714987 c 0.481581,0 0.865063,0.38557 0.865063,0.86714 z M 2.8065471,284.36149 c -0.6046298,0 -1.0996697,0.49659 -1.0996745,1.10122 v 3.91811 c -5.715e-4,0.14633 0.1177387,0.26533 0.2640666,0.26562 0.1461257,-5.8e-4 0.2641216,-0.11949 0.2635498,-0.26562 v -3.91811 c 2.5e-6,-0.31865 0.2534086,-0.57205 0.5720581,-0.57205 h 9.0588789 c 0.318651,0 0.572056,0.2534 0.572058,0.57205 v 5.09995 c -2e-6,0.31865 -0.253407,0.57206 -0.572058,0.57206 H 5.3572959 c -0.1461257,-5.8e-4 -0.2650472,0.11742 -0.2656168,0.26355 -5.821e-4,0.14693 0.1186831,0.26619 0.2656168,0.26562 h 6.5081301 c 0.604631,0 1.101221,-0.4966 1.101225,-1.10123 v -5.09995 c -4e-6,-0.60463 -0.496594,-1.10122 -1.101225,-1.10122 z m 0.1384928,5.56607 c -0.1044647,-0.0904 -0.2608917,-0.0852 -0.3591512,0.0119 l -0.695048,0.69557 c -0.096792,0.0982 -0.1019636,0.25425 -0.011886,0.35863 l -1.38079428,1.37925 c -0.29312184,0.29312 -0.29312251,0.77553 0,1.06866 l 0.17363282,0.17364 c 0.2931232,0.29313 0.77709576,0.29313 1.07021896,0 l 1.379244,-1.37873 c 0.1044646,0.0904 0.2608916,0.0852 0.3591512,-0.0119 l 0.6955648,-0.69505 c 1.2043574,-1.24135 2.5119301,-2.6722 2.9765625,-4.04885 0.1246863,-0.43488 0.1092679,-0.88705 -0.1953368,-1.19166 -0.1275792,-0.11154 -0.2983228,-0.0735 -0.3731038,0 -1.2130186,1.21285 -2.4260366,2.42569 -3.6390542,3.63854 z m 3.6700603,-2.92386 c 0.5034153,0.42003 -1.7120905,3.02433 -2.6272297,3.96462 l -0.6686931,-0.66869 z m 2.9765626,0.14883 -0.8474935,1.46865 c -0.072782,0.12672 -0.029054,0.28844 0.097669,0.36122 0.1267174,0.0728 0.2884439,0.0291 0.3612181,-0.0977 l 0.8474936,-1.46865 c 0.07278,-0.12671 0.02905,-0.28844 -0.097669,-0.36121 -0.1531794,-0.079 -0.2915428,-0.0128 -0.3612184,0.0977 z m 1.2619382,0.076 -1.4123165,2.44739 c -0.07313,0.12618 -0.030371,0.28774 0.095601,0.36122 0.1262911,0.0735 0.2882384,0.0307 0.3617349,-0.0956 l 1.4138676,-2.44946 c 0.07278,-0.12672 0.02905,-0.28845 -0.09767,-0.36122 -0.138398,-0.0796 -0.286209,-0.0207 -0.361219,0.0977 z m -8.0801268,3.27163 0.841809,0.84181 -0.322461,0.32195 -0.8433592,-0.84336 z m -0.5234823,0.8692 0.4960937,0.49609 -1.3771769,1.37666 c -0.090903,0.0909 -0.2310413,0.0909 -0.3219442,0 l -0.17414954,-0.17363 c -0.0909025,-0.0909 -0.0909023,-0.23155 0,-0.32246 z"
         sodipodi:nodetypes="ccccscccccscscsscccscccsssscccsssccscccccssccscscsccsscccccccccccccccccccccccsccccccccccccccccccccc" />
    </g>
  </g>
</svg>
