<?xml version="1.0" encoding="UTF-8" standalone="no"?>
<svg
   width="64pt"
   height="64pt"
   viewBox="0 0 22.577778 22.577778"
   version="1.1"
   id="svg831"
   inkscape:version="1.1.1 (1:1.1+202109281949+c3084ef5ed)"
   sodipodi:docname="03 - Chef.svg"
   inkscape:export-filename="/media/taufikramadhan/Data/Tr Design Studio/Project Design/TR Creative Design/Icon Design/Project Hiring/Icon Icons/013 - Drinks And Restaurants/Send/4 - Filledline/03 - Chef.png"
   inkscape:export-xdpi="576"
   inkscape:export-ydpi="576"
   xmlns:inkscape="http://www.inkscape.org/namespaces/inkscape"
   xmlns:sodipodi="http://sodipodi.sourceforge.net/DTD/sodipodi-0.dtd"
   xmlns="http://www.w3.org/2000/svg"
   xmlns:svg="http://www.w3.org/2000/svg"
   xmlns:rdf="http://www.w3.org/1999/02/22-rdf-syntax-ns#"
   xmlns:cc="http://creativecommons.org/ns#"
   xmlns:dc="http://purl.org/dc/elements/1.1/">
  <defs
     id="defs825">
    <pattern
       id="EMFhbasepattern"
       patternUnits="userSpaceOnUse"
       width="6"
       height="6"
       x="0"
       y="0" />
    <pattern
       id="EMFhbasepattern-9"
       patternUnits="userSpaceOnUse"
       width="6"
       height="6"
       x="0"
       y="0" />
    <pattern
       id="EMFhbasepattern-0"
       patternUnits="userSpaceOnUse"
       width="6"
       height="6"
       x="0"
       y="0" />
    <pattern
       id="EMFhbasepattern-7"
       patternUnits="userSpaceOnUse"
       width="6"
       height="6"
       x="0"
       y="0" />
    <pattern
       id="EMFhbasepattern-2"
       patternUnits="userSpaceOnUse"
       width="6"
       height="6"
       x="0"
       y="0" />
    <pattern
       id="EMFhbasepattern-98"
       patternUnits="userSpaceOnUse"
       width="6"
       height="6"
       x="0"
       y="0" />
    <pattern
       id="EMFhbasepattern-6"
       patternUnits="userSpaceOnUse"
       width="6"
       height="6"
       x="0"
       y="0" />
    <pattern
       id="EMFhbasepattern-01"
       patternUnits="userSpaceOnUse"
       width="6"
       height="6"
       x="0"
       y="0" />
    <pattern
       id="EMFhbasepattern-07"
       patternUnits="userSpaceOnUse"
       width="6"
       height="6"
       x="0"
       y="0" />
    <pattern
       id="EMFhbasepattern-8"
       patternUnits="userSpaceOnUse"
       width="6"
       height="6"
       x="0"
       y="0" />
    <pattern
       id="EMFhbasepattern-4"
       patternUnits="userSpaceOnUse"
       width="6"
       height="6"
       x="0"
       y="0" />
    <pattern
       id="EMFhbasepattern-40"
       patternUnits="userSpaceOnUse"
       width="6"
       height="6"
       x="0"
       y="0" />
    <pattern
       id="EMFhbasepattern-08"
       patternUnits="userSpaceOnUse"
       width="6"
       height="6"
       x="0"
       y="0" />
    <pattern
       id="EMFhbasepattern-04"
       patternUnits="userSpaceOnUse"
       width="6"
       height="6"
       x="0"
       y="0" />
    <pattern
       id="EMFhbasepattern-014"
       patternUnits="userSpaceOnUse"
       width="6"
       height="6"
       x="0"
       y="0" />
    <pattern
       id="EMFhbasepattern-27"
       patternUnits="userSpaceOnUse"
       width="6"
       height="6"
       x="0"
       y="0" />
    <pattern
       id="EMFhbasepattern-09"
       patternUnits="userSpaceOnUse"
       width="6"
       height="6"
       x="0"
       y="0" />
    <pattern
       id="EMFhbasepattern-5"
       patternUnits="userSpaceOnUse"
       width="6"
       height="6"
       x="0"
       y="0" />
    <pattern
       id="EMFhbasepattern-018"
       patternUnits="userSpaceOnUse"
       width="6"
       height="6"
       x="0"
       y="0" />
  </defs>
  <sodipodi:namedview
     id="base"
     pagecolor="#ffffff"
     bordercolor="#666666"
     borderopacity="1.0"
     inkscape:pageopacity="0.0"
     inkscape:pageshadow="2"
     inkscape:zoom="4.6959187"
     inkscape:cx="42.590175"
     inkscape:cy="42.590175"
     inkscape:document-units="pt"
     inkscape:current-layer="layer1"
     showgrid="false"
     units="pt"
     inkscape:window-width="1366"
     inkscape:window-height="705"
     inkscape:window-x="0"
     inkscape:window-y="31"
     inkscape:window-maximized="1"
     inkscape:pagecheckerboard="true"
     inkscape:showpageshadow="false"
     inkscape:object-paths="true"
     inkscape:snap-intersection-paths="true"
     inkscape:snap-smooth-nodes="true"
     inkscape:snap-midpoints="true"
     showguides="true"
     inkscape:snap-bbox="true"
     inkscape:bbox-nodes="true"
     inkscape:snap-nodes="false"
     inkscape:snap-global="true"
     inkscape:document-rotation="0">
    <inkscape:grid
       type="xygrid"
       id="grid1378" />
    <sodipodi:guide
       position="0.97013831,21.607643"
       orientation="78.000048,0"
       id="guide1380"
       inkscape:locked="false" />
    <sodipodi:guide
       position="0.97013831,0.97013129"
       orientation="0,78.000005"
       id="guide1382"
       inkscape:locked="false" />
    <sodipodi:guide
       position="21.607639,0.97013129"
       orientation="-78.000048,0"
       id="guide1384"
       inkscape:locked="false" />
    <sodipodi:guide
       position="21.607639,21.607643"
       orientation="0,-78.000005"
       id="guide1386"
       inkscape:locked="false" />
  </sodipodi:namedview>
  <metadata
     id="metadata828">
    <rdf:RDF>
      <cc:Work
         rdf:about="">
        <dc:format>image/svg+xml</dc:format>
        <dc:type
           rdf:resource="http://purl.org/dc/dcmitype/StillImage" />
      </cc:Work>
    </rdf:RDF>
  </metadata>
  <g
     inkscape:label="Icon"
     inkscape:groupmode="layer"
     id="layer1"
     transform="translate(0,-274.42223)">
    <g
       id="g13786"
       style="display:inline;stroke-width:0.795195"
       transform="matrix(1.2575539,0,0,1.2575539,0.65545622,-38.771731)">
      <g
         id="g440176"
         style="display:inline;stroke-width:0.795195">
        <path
           style="color:#000000;fill:#ffa185;stroke-width:0.795195;stroke-linecap:round;stroke-linejoin:round;-inkscape-stroke:none"
           d="m 5.3515625,256.66797 a 0.26460996,0.26460996 0 0 0 -0.25,0.17773 l -0.4375,1.25391 a 0.26460996,0.26460996 0 0 0 0.1015625,0.30664 l 1.5488281,1.05859 a 0.26460996,0.26460996 0 0 0 0.2988281,0 l 1.5507813,-1.05859 a 0.26460996,0.26460996 0 0 0 0.099609,-0.30664 l -0.4375,-1.25391 A 0.26460996,0.26460996 0 0 0 7.578125,256.66797 Z"
           id="path405601" />
        <path
           style="color:#000000;fill:#d0e2ee;stroke-width:0.795195;stroke-linecap:round;stroke-linejoin:round;-inkscape-stroke:none"
           d="m 12.107422,256.97266 a 0.26460996,0.26460996 0 0 0 -0.234375,0.0996 c 0,0 -0.657323,0.91951 -0.980469,2.03515 -0.32598,-0.26189 -0.726562,-0.57226 -0.726562,-0.57226 a 0.26460996,0.26460996 0 0 0 -0.04102,-0.0195 l -1.734375,-0.68359 a 0.26460996,0.26460996 0 0 0 -0.1953125,0 c 0,0 -0.2918422,0.1171 -0.6601563,0.23438 -0.368314,0.11728 -0.8225041,0.22852 -1.0703125,0.22851 -0.2478108,0 -0.703951,-0.11123 -1.0722656,-0.22851 -0.3683146,-0.11729 -0.6582031,-0.23438 -0.6582031,-0.23438 a 0.26460996,0.26460996 0 0 0 -0.1953125,0 l -1.7363281,0.68359 a 0.26460996,0.26460996 0 0 0 -0.039063,0.0195 c 0,0 -0.3011131,0.18098 -0.6191406,0.43359 -0.3148025,0.25004 -0.6663784,0.53922 -0.7675782,0.94922 -0.00809,0.0214 -0.2247128,0.58741 -0.1855469,1.36133 0.037948,0.74985 0.3734398,1.69088 1.3046876,2.46093 v 1.69922 c -3e-6,0.43525 0.3577238,0.79297 0.7929687,0.79297 h 6.3496094 c 0.4352456,0 0.7949256,-0.35772 0.7949226,-0.79297 v -3.52734 c 0.150966,-0.0129 0.32218,-0.0176 0.708984,-0.10938 0.52428,-0.12441 1.155218,-0.3402 1.566406,-0.80078 a 0.26460996,0.26460996 0 0 0 0.03906,-0.0586 c 0,0 0.758981,-1.54318 0.470703,-3.65234 a 0.26460996,0.26460996 0 0 0 -0.236328,-0.22852 z"
           id="path405595" />
        <path
           id="path433212"
           style="color:#000000;fill:#a8c2e1;fill-opacity:1;stroke-width:3.00546;stroke-linecap:round;stroke-linejoin:round;-inkscape-stroke:none"
           d="m 12.128906,-66.652344 -2.6953122,6.19336 v 1.113281 l 11.3964842,1.976564 3.404297,0.482422 c 1.616451,0.22904 3.093774,-1.054857 3.09375,-2.6875 v -2.539062 z"
           transform="matrix(0.26458334,0,0,0.26458334,0,280.06666)"
           sodipodi:nodetypes="cccccccc" />
        <path
           style="color:#000000;fill:#d0e2ee;stroke-width:0.795195;stroke-linecap:round;stroke-linejoin:round;-inkscape-stroke:none"
           d="m 3.5117188,261.74023 a 0.26460996,0.26460996 0 0 0 -0.3027344,0.16211 l -0.6425781,1.63868 a 0.26460996,0.26460996 0 0 0 0.203125,0.35742 l 2.7109374,0.45703 a 0.26460996,0.26460996 0 0 0 0.3085938,-0.26172 v -1.30859 A 0.26460996,0.26460996 0 0 0 5.734375,262.625 C 5.5952281,262.44302 5.4011752,262.34668 5.1757812,262.24609 4.9503873,262.14551 4.6925035,262.0567 4.4472656,261.98242 3.9567898,261.83386 3.5117187,261.74023 3.5117188,261.74023 Z"
           id="path405583" />
        <path
           style="color:#000000;fill:#ffa185;stroke-width:0.795195;stroke-linecap:round;stroke-linejoin:round;-inkscape-stroke:none"
           d="m 8.140625,254.28645 -0.2109375,0.0547 A 0.26460996,0.26460996 0 0 0 7.734375,254.6224 l 0.109375,1.14844 a 0.26460996,0.26460996 0 0 0 0.3125,0.23633 c 0.1322676,-0.0248 0.2738413,-0.0515 0.421875,-0.0977 0.4438106,-0.12073 0.7109386,-0.58464 0.5917969,-1.0293 -0.1194044,-0.44568 -0.5836372,-0.71322 -1.0292969,-0.59375 z"
           id="path405577" />
        <path
           style="color:#000000;fill:#ffa185;stroke-width:0.795195;stroke-linecap:round;stroke-linejoin:round;-inkscape-stroke:none"
           d="m 4.7890625,254.28645 c -0.4456599,-0.11947 -0.9118456,0.14807 -1.03125,0.59375 -0.1192427,0.44503 0.1512337,0.90904 0.5957031,1.0293 6.321e-4,1.7e-4 -6.328e-4,0.002 0,0.002 0.1464671,0.0453 0.2869978,0.0712 0.4179688,0.0957 a 0.26460996,0.26460996 0 0 0 0.3125,-0.23633 l 0.109375,-1.14844 a 0.26460996,0.26460996 0 0 0 -0.1953125,-0.28125 z"
           id="path405571" />
        <path
           style="color:#000000;fill:#ffccbc;stroke-width:0.795195;stroke-linecap:round;stroke-linejoin:round;-inkscape-stroke:none"
           d="m 5.3105465,253.92703 c -0.1298226,-0.1561 -0.3798151,-0.11387 -0.4511719,0.0762 -0.2218559,0.59225 -0.3767827,1.23556 -0.2871094,1.90235 0.07007,0.5207 0.240476,0.92869 0.6113281,1.23242 0.1577109,0.12917 0.3502113,0.24398 0.5625,0.33593 0.5058341,0.24216 0.9860079,0.15743 1.4101563,0.002 0.00461,-0.002 0.00917,-0.004 0.013672,-0.006 0.2158952,-0.0944 0.4125973,-0.20991 0.5664062,-0.32617 0.4000198,-0.30236 0.5472127,-0.70378 0.6191407,-1.23828 7.693e-4,-0.005 0.00142,-0.009 0.00195,-0.0137 0.050907,-0.6163 -0.032874,-1.31358 -0.2929688,-1.90234 -0.036684,-0.0841 -0.1142813,-0.14313 -0.2050747,-0.15611 z"
           id="path405565"
           sodipodi:nodetypes="cccscccsccccc" />
        <path
           style="color:#000000;fill:#d0e2ee;stroke-width:0.795195;stroke-linecap:round;stroke-linejoin:round;-inkscape-stroke:none"
           d="m 6.109375,249.82617 c -0.5108921,-0.0406 -1.0888595,0.18835 -1.6972656,0.66406 -0.1656266,-0.0209 -0.3430117,-0.0333 -0.5253906,0.0469 a 0.26460996,0.26460996 0 0 0 -0.017578,0.01 c -0.6180133,0.33024 -0.8319387,0.94564 -0.6757812,1.44922 0.1561574,0.50359 0.6482371,0.90039 1.2753906,0.90039 a 0.26460996,0.26460996 0 0 0 0.011719,0 c 0,0 0.016474,-0.002 0.017578,-0.002 0.3159188,0.51457 0.34375,1.17774 0.34375,1.17774 a 0.26460996,0.26460996 0 0 0 0.060547,0.19335 c 0,0 0.046759,0.0514 0.1074219,0.0957 0.060663,0.0443 0.1484932,0.0971 0.2695313,0.14648 0.242076,0.0987 0.6176242,0.18555 1.1855468,0.18555 0.5679227,0 0.9415177,-0.0868 1.1835938,-0.18555 0.121038,-0.0494 0.2088682,-0.10221 0.2695312,-0.14648 0.060663,-0.0443 0.1074219,-0.0957 0.1074219,-0.0957 a 0.26460996,0.26460996 0 0 0 0.041016,-0.0703 c 0.2589025,-0.63897 0.152001,-1.23106 0.125,-1.42969 0.251827,-0.0542 0.5129172,-0.10729 0.734375,-0.25976 0.2827514,-0.19467 0.5,-0.52523 0.5,-0.94336 0,-0.20149 -0.052427,-0.47728 -0.1972657,-0.76367 -0.1448384,-0.28639 -0.3971776,-0.58164 -0.7890625,-0.70508 a 0.26460996,0.26460996 0 0 0 -0.015625,-0.004 c -0.4218566,-0.1034 -0.7382532,0.0836 -1.03125,0.28516 C 7.026543,250.11788 6.6165892,249.8666 6.1093758,249.8263 Z"
           id="path405559" />
        <path
           style="color:#000000;fill:#ffccbc;stroke-width:0.795195;stroke-linecap:round;stroke-linejoin:round;-inkscape-stroke:none"
           d="m 11.755859,255.91406 a 0.26460996,0.26460996 0 0 0 -0.263671,0.26367 v 0.73438 c 3e-6,0.32237 0.265515,0.58984 0.58789,0.58984 h 0.875 c 0.1162,0 0.272636,-0.007 0.431641,-0.0332 0.159004,-0.0265 0.325884,-0.0635 0.474609,-0.19141 0.301331,-0.25913 0.541016,-0.66343 0.541016,-1.09961 a 0.26460996,0.26460996 0 0 0 -0.265625,-0.26367 z"
           id="path405508" />
        <path
           style="color:#000000;fill:#7d8e9e;stroke-width:0.795195;stroke-linecap:round;stroke-linejoin:round;-inkscape-stroke:none"
           d="m 12.814453,253.5332 c -1.458119,0 -2.646484,1.18642 -2.646484,2.64453 a 0.26460996,0.26460996 0 0 0 0.265625,0.26563 h 4.761719 a 0.26460996,0.26460996 0 0 0 0.265625,-0.26563 c 0,-1.45811 -1.188367,-2.64453 -2.646485,-2.64453 z"
           id="path405499" />
        <path
           style="color:#000000;fill:#ffccbc;stroke-width:0.795195;stroke-linecap:round;stroke-linejoin:round;-inkscape-stroke:none"
           d="m 6.4121094,262.39258 -0.9238282,0.13086 a 0.26460996,0.26460996 0 0 0 -0.2285156,0.26172 v 1.30859 a 0.26460996,0.26460996 0 0 0 0.2285156,0.26172 l 0.9238282,0.13086 c 0.4276859,0.0606 0.8183656,-0.27897 0.8183593,-0.71094 v -0.67187 c 6.3e-6,-0.43198 -0.3906638,-0.77156 -0.8183593,-0.71094 z"
           id="path405589" />
      </g>
      <path
         id="path6500"
         style="color:#000000;fill:#000000;stroke-width:3.00546;stroke-linecap:round;stroke-linejoin:round;-inkscape-stroke:none"
         d="m 22.507812,-114.28711 c -1.824349,-0.0126 -3.839707,0.68808 -5.982421,2.38672 -0.588633,-0.0514 -1.210829,0.0203 -1.835938,0.29492 v -0.002 c -0.0226,0.0115 -0.04475,0.0239 -0.06641,0.0371 -2.335798,1.24815 -3.142936,3.57522 -2.552735,5.47851 0.590202,1.90334 2.449969,3.40235 4.820313,3.40235 0.01172,2.1e-4 0.02344,2.1e-4 0.03516,0 0,0 0.09982,-0.002 0.261719,-0.0117 1.132407,1.73863 1.130549,3.881478 1.115234,4.353514 -0.07106,0.183958 -0.189454,0.495991 -0.322265,0.875 -1.647358,-0.373416 -3.336729,0.636606 -3.777344,2.28125 -0.451322,1.684346 0.567777,3.439122 2.251953,3.890625 0.294977,0.09133 0.581606,0.164815 0.861328,0.226562 0.244805,1.589132 0.758262,2.896156 1.748047,3.929688 l -1.089844,3.128906 c -0.556068,-0.238303 -1.027741,-0.485465 -1.34375,-0.728516 -0.209983,-0.161592 -0.475513,-0.233242 -0.738281,-0.199218 v -0.002 c -0.263719,0.03483 -0.502694,0.173292 -0.664062,0.384765 -0.285942,0.379352 -0.265533,0.907516 0.04883,1.263672 -2.722487,0.789584 -5.264255,2.053883 -7.1718752,3.556642 -3.0078223,2.351589 -3.6945276,5.514479 -3.5058594,8.71875 0.1942587,2.805823 1.342668,6.34938 4.8339844,9.248046 v 6.490235 c -1.1e-5,1.645039 1.3530272,2.996094 2.9980472,2.996094 H 36.42969 c 1.64502,0 3.003917,-1.351055 3.003906,-2.996094 v -13.314453 c 0.595278,-0.08911 1.266489,-0.205301 1.970703,-0.357422 2.314091,-0.499843 5.021704,-1.301222 6.628906,-3.101563 0.05885,-0.0669 0.10932,-0.140577 0.148438,-0.220703 0,0 2.690781,-5.472053 1.86914,-13.060547 0.178169,-0.01804 0.36084,-0.04193 0.544922,-0.07227 0.60096,-0.100158 1.230859,-0.239217 1.792969,-0.722656 0.903289,-0.776785 1.659165,-1.898896 1.933594,-3.152344 h 4.113281 c 0.552286,-0.0022 0.998255,-0.45162 0.996094,-1.003906 -0.0021,-0.549238 -0.446856,-0.993953 -0.996094,-0.996094 h -0.05078 c -0.470074,-4.716729 -4.237583,-8.479894 -8.955078,-8.949223 v -1.05273 c -0.0019,-0.54958 -0.448451,-0.99616 -0.998047,-0.99805 -0.552477,-0.002 -1.002002,0.44556 -1.003907,0.99805 v 1.05273 c -4.713872,0.472678 -8.47745,4.235078 -8.947265,8.949223 h -0.05078 c -0.549238,0.0021 -0.993953,0.446856 -0.996094,0.996094 -0.0022,0.552286 0.443808,1.001753 0.996094,1.003906 h 5.005859 v 1.771484 c 6e-6,0.633435 0.271469,1.210765 0.703125,1.619141 -0.867676,1.267245 -2.298206,3.606109 -3.148438,6.341797 -0.07865,-0.06292 -0.156749,-0.125842 -0.234375,-0.1875 -1.201991,-0.954747 -2.333984,-1.638672 -2.333984,-1.638672 -0.04947,-0.03024 -0.10059,-0.05419 -0.154297,-0.07422 l -4.675781,-1.84375 c 0.312006,-0.358044 0.329149,-0.886147 0.04102,-1.263672 -0.159982,-0.210142 -0.396601,-0.348461 -0.658203,-0.384765 -0.262768,-0.03402 -0.528298,0.03763 -0.738281,0.199218 -0.316767,0.243635 -0.790558,0.493595 -1.349609,0.732422 l -1.082031,-3.109375 c 1.040028,-1.027019 1.494277,-2.323352 1.738281,-3.951172 0.282205,-0.06166 0.573389,-0.134017 0.871093,-0.226562 1.684167,-0.451503 2.695452,-2.204326 2.244141,-3.888672 -0.440549,-1.644398 -2.122742,-2.654196 -3.769531,-2.28125 -0.0963,-0.274859 -0.187191,-0.517538 -0.25586,-0.699219 0.644706,-1.866496 0.587472,-3.877456 0.492188,-4.933596 0.99188,-0.23588 1.999622,-0.605 2.845703,-1.26171 0.947966,-0.73576 1.654297,-1.92084 1.654297,-3.36719 0,-0.76154 -0.198672,-1.8043 -0.746094,-2.88672 -0.54742,-1.08242 -1.501282,-2.19752 -2.982422,-2.66406 -1.551533,-0.37801 -3.184415,0.048 -4.279293,0.83401 l -0.002,-0.002 c -1.286169,-0.87882 -2.770356,-1.64582 -4.517578,-1.80664 -0.194135,-0.0179 -0.391057,-0.0279 -0.589844,-0.0293 z m -0.167968,2 c 0.195004,-0.003 0.386813,0.004 0.574218,0.0215 1.157565,0.10651 2.24477,0.60573 3.291016,1.28124 -0.261392,0.39851 -0.468729,0.85695 -0.560547,1.38477 -0.09569,0.54425 0.268179,1.06294 0.8125,1.1582 0.543602,0.0958 1.061998,-0.26701 1.158203,-0.81054 0.669747,-1.65965 2.461424,-2.38125 3.712891,-2.09766 0.828168,0.27439 1.387702,0.88361 1.765625,1.63086 0.383698,0.75866 0.53125,1.64674 0.53125,1.98633 0,0.85931 -0.304161,1.34097 -0.878906,1.78711 -0.574745,0.4461 -1.458417,0.77377 -2.384766,0.96679 -1.852697,0.38605 -3.779297,0.25 -3.779297,0.25 -0.550621,-0.0403 -1.029732,0.37323 -1.070312,0.92383 -0.04044,0.5478 0.368543,1.02567 0.916015,1.07031 0,0 1.180056,0.0957 2.69336,-0.0449 0.05683,0.97371 0.06629,2.68702 -0.40625,4.0293 -1.371237,0.706435 -3.10528,0.844828 -4.28125,0.851562 -1.422783,-0.005 -2.845497,-0.1937 -4.117188,-0.746093 0.0017,-0.881814 -0.124199,-2.649109 -1.005859,-4.382809 1.160489,-0.27721 2.551846,-0.78073 3.707031,-1.69922 0.431084,-0.343 0.503569,-0.97005 0.16211,-1.40235 -0.342416,-0.4317 -0.969529,-0.50507 -1.402344,-0.16406 -1.709341,1.35919 -4.86516,1.60072 -4.902344,1.60352 -1.529167,-0.008 -2.566098,-0.93497 -2.894531,-1.99414 -0.325913,-1.05101 -0.05108,-2.20078 1.558593,-3.08594 0.700245,-0.2846 1.514276,-0.0615 2.265626,0.37695 0.766035,0.44708 1.30664,1.00391 1.30664,1.00391 0.379769,0.39828 1.00997,0.41486 1.410156,0.0371 0.402158,-0.38038 0.418792,-1.0151 0.03711,-1.41602 0,0 -0.697227,-0.73175 -1.722656,-1.33594 1.332753,-0.85247 2.475224,-1.16869 3.503906,-1.18359 z m 26.091797,14.003907 c 4.092715,0 7.453322,3.041637 7.941406,6.998047 H 40.492188 c 0.488082,-3.95641 3.846733,-6.998047 7.939453,-6.998047 z m -16.738285,5.11131 c -4.01e-4,-0.104358 5e-6,-0.20536 -0.002,-0.298828 -0.01386,-0.550023 -0.469442,-0.985529 -1.019531,-0.974609 -0.553099,0.0096 -0.993309,0.466456 -0.982422,1.019531 0.01002,0.477392 5.56e-4,1.134709 -0.08789,1.83789 -0.354031,2.522038 -1.336939,3.325722 -3.263671,4.326172 -1.522607,0.378272 -2.737617,0.541215 -3.808592,0.05078 -2.037314,-0.814769 -3.032033,-2.744566 -3.261719,-4.371093 -0.0894,-0.706394 -0.107695,-1.364431 -0.09766,-1.84375 0.01089,-0.552326 -0.428139,-1.008848 -0.980469,-1.019531 -0.550089,-0.01092 -1.005669,0.424586 -1.019531,0.974609 -0.0019,0.09269 -0.0019,0.193472 -0.002,0.296875 l -0.197264,-0.05272 c -0.64773,-0.173481 -1.007508,-0.799682 -0.833984,-1.447266 0.173529,-0.647736 0.791928,-1.00754 1.439453,-0.833984 h 0.0078 l 0.789063,0.21289 c 0.506797,0.135909 1.027738,-0.141581 1.201172,-0.626953 h 0.002 c 0.07822,-0.255436 0.160863,-0.505656 0.240234,-0.738281 0.04457,0.01949 0.0895,0.04128 0.136719,0.06055 0.914933,0.373039 2.33399,0.701171 4.480469,0.701171 1.568789,-0.06732 3.21889,-0.19837 4.615234,-0.763671 l 0.21295,0.660157 c 0.142242,0.534425 0.69046,0.852228 1.224609,0.708984 l 0.798828,-0.214843 c 0.647523,-0.173481 1.265922,0.186135 1.439453,0.833984 0.173518,0.647584 -0.186267,1.273634 -0.833984,1.447266 z m 13.734378,3.886737 h 6.765625 c -0.256395,0.624343 -0.684282,1.271437 -1.111328,1.638672 -0.03866,0.03401 -0.388468,0.194192 -0.818359,0.265625 -0.429887,0.07143 -0.929587,0.0957 -1.298828,0.0957 H 45.65625 c -0.137537,0 -0.228516,-0.09094 -0.228516,-0.228516 z m -17.314453,3.375 0.892578,2.572265 c -1.497562,0.463768 -2.988466,0.764012 -4.576171,1.035157 -1.727171,-0.287678 -3.006409,-0.585324 -4.574219,-1.033204 L 20.742188,-85.875 c 0.305129,0.173612 0.626912,0.334896 0.960937,0.480469 0.0026,0.0012 0.0052,-0.0013 0.0078,0 1.91474,0.919899 3.730636,0.596058 5.335937,0.0078 z m 18.042969,0.626953 h 1.884766 c 0.79928,6.912207 -1.474315,11.695392 -1.59375,11.943359 -1.027234,1.089562 -3.350332,1.971394 -5.462891,2.427735 -2.149905,0.464352 -3.994141,0.583984 -3.994141,0.583984 -0.547001,0.0378 -0.96146,0.507336 -0.929687,1.054687 0.03352,0.54996 0.504632,0.969173 1.054687,0.9375 0,0 0.12897,-0.0075 0.31836,-0.02344 v 13.076172 c 4e-6,0.564132 -0.43978,0.996094 -1.003906,0.996094 h -0.996094 v -14.689453 c 0,-3.73818 -1.106928,-6.951793 -2.333985,-9.369141 -0.121194,-0.235465 -0.329797,-0.413032 -0.582031,-0.494141 -0.251282,-0.08164 -0.524059,-0.06084 -0.759766,0.05859 -0.493419,0.248693 -0.692203,0.850484 -0.443359,1.34375 1.122537,2.211439 2.117188,5.117076 2.117188,8.460938 v 14.689453 h -21 c -0.564127,0 -0.998051,-0.431962 -0.998047,-0.996094 v -5.662109 l 9.279297,1.564453 0.002,-0.0059 c 0.0091,0.0021 0.0182,0.0041 0.02734,0.0059 l 3.492187,0.49414 c 1.616451,0.22904 3.093774,-1.054857 3.09375,-2.6875 v -2.539062 c 2.4e-5,-1.632681 -1.477263,-2.914662 -3.09375,-2.685547 l -2.986328,0.421875 c -0.469065,-0.413025 -1.044196,-0.690337 -1.685547,-0.976563 -1.408052,-0.595518 -2.768563,-1.030048 -4.199219,-1.40625 0.826989,-0.516233 1.863579,-1.012949 2.826172,-1.050781 0.549685,-0.02188 0.977813,-0.485358 0.958985,-1.035156 -0.02183,-0.552695 -0.48837,-0.982008 -1.041016,-0.958985 -1.262401,0.04966 -2.419581,0.490535 -3.359375,1.009766 0.04728,-0.521503 0.06556,-1.039283 0.07422,-1.533203 0.03231,-1.843238 -0.183594,-3.412109 -0.183594,-3.412109 -0.07857,-0.545277 -0.583355,-0.924304 -1.128906,-0.847657 -0.549235,0.07372 -0.933783,0.580033 -0.857422,1.128907 0,0 0.199069,1.430833 0.169922,3.09375 -0.02914,1.662954 -0.405771,3.500044 -0.996094,4.132812 -0.381446,0.402762 -0.362164,1.039044 0.04297,1.417969 0.40542,0.378887 1.041808,0.355221 1.417968,-0.05273 0.08619,-0.09239 0.167416,-0.186964 0.244141,-0.285156 1.838722,0.436498 3.419367,0.916837 5.210938,1.623047 0.493103,0.219932 0.901984,0.471689 1.136718,0.642578 v 3.332031 L 11.125,-63.027344 c -3.3516147,-2.59423 -4.3526212,-5.639332 -4.5253906,-8.134765 -0.2691537,-3.306152 0.4463064,-5.14955 2.7539098,-7.013625 2.3274048,-1.974726 5.3453268,-2.745213 8.1386728,-3.845703 1.080287,0.441538 2.263633,0.765439 3.353515,1.033203 0.466593,0.114642 0.91619,0.214925 1.326172,0.300781 -0.2674,0.223152 -0.52513,0.470702 -0.757813,0.748047 -0.466597,0.55612 -0.855468,1.26838 -0.855468,2.111328 -0.0022,0.555364 0.448549,1.006098 1.003906,1.003906 0.552472,-0.0019 0.998261,-0.451452 0.996094,-1.003906 0,-1.086564 1.301841,-1.658777 2.236328,-2.203125 1.159974,0.54143 2.591797,1.149209 2.591797,2.386719 -0.0022,0.555364 0.448549,1.006098 1.003906,1.003906 0.552472,-0.0019 0.998261,-0.451453 0.996094,-1.003906 0,-0.842948 -0.381059,-1.555171 -0.847657,-2.111328 -0.353794,-0.421675 -0.765039,-0.77425 -1.18164,-1.076172 0.213254,-0.04838 0.432358,-0.101235 0.65625,-0.15625 1.089091,-0.26757 2.275673,-0.590202 3.357422,-1.03125 l 6.078125,2.390625 c 0.061,0.0378 1.003973,0.615468 2.058593,1.453125 1.088009,0.864189 2.129621,2.092268 2.228516,2.517578 0.125934,0.538469 0.666847,0.87301 1.205078,0.746094 0.538473,-0.125859 0.871069,-0.664883 0.744141,-1.203125 -0.170524,-0.733335 -0.557346,-1.362483 -1.042969,-1.921875 0.793517,-3.22999 2.775374,-6.212561 3.513672,-7.246094 z m -15.720703,8.996094 c -0.552286,-0.0022 -1.001752,0.443807 -1.003906,0.996093 -0.0022,0.55534 0.448566,1.00608 1.003906,1.003907 0.552287,-0.0022 0.998256,-0.45162 0.996094,-1.003907 -0.0021,-0.549238 -0.446856,-0.993952 -0.996094,-0.996093 z m 1.003906,5.001953 c -0.552286,-0.0022 -1.001753,0.443808 -1.003906,0.996094 -0.0022,0.55534 0.448566,1.006079 1.003906,1.003906 0.552286,-0.0022 0.998255,-0.45162 0.996094,-1.003906 -0.0021,-0.549238 -0.446856,-0.993953 -0.996094,-0.996094 z m 0,5 c -0.553047,-0.0022 -1.00283,0.444997 -1.003906,0.998047 -0.0022,0.55534 0.448566,1.006079 1.003906,1.003906 0.552286,-0.0022 0.998255,-0.45162 0.996094,-1.003906 -0.0011,-0.550001 -0.446097,-0.995899 -0.996094,-0.998047 z m -6.800781,1.455078 c 0.389509,0.0056 0.689459,0.306801 0.689453,0.716797 v 2.539062 c 6e-6,0.452523 -0.364445,0.772481 -0.8125,0.708985 l -2.634766,-0.375 v -3.205078 z m 6.800781,3.542969 c -0.552286,-0.0022 -1.001752,0.443807 -1.003906,0.996093 -0.0022,0.55534 0.448566,1.00608 1.003906,1.003907 0.552287,-0.0022 0.998256,-0.45162 0.996094,-1.003907 -0.0021,-0.549238 -0.446856,-0.993952 -0.996094,-0.996093 z"
         transform="matrix(0.26458334,0,0,0.26458334,0,280.06666)"
         sodipodi:nodetypes="cccccscccccccccccccccccccssccccccccccscccccccccsccsccscccccccccccccccssccccccsccccccsscsccccccccccccsccccccsssccsccccccccccccccccccccccccccccccccsssscccccccccccccccccccscsccccscsccccccccccccccccscccscccccccccccsccccccccccccccsccccccssssssssssscscscccccccsssss" />
    </g>
  </g>
</svg>
