<?xml version="1.0" encoding="iso-8859-1"?>
<!-- Generator: Adobe Illustrator 19.0.0, SVG Export Plug-In . SVG Version: 6.00 Build 0)  -->
<svg xmlns="http://www.w3.org/2000/svg" xmlns:xlink="http://www.w3.org/1999/xlink" version="1.1" id="Layer_1" x="0px" y="0px" viewBox="0 0 512.001 512.001" style="enable-background:new 0 0 512.001 512.001;" xml:space="preserve">
<path style="fill:#EFEFEF;" d="M468.423,121.676c0,37.187-29.665,67.425-66.62,68.36v170.97h-291.62v-170.97  c-36.955-0.935-66.62-31.173-66.62-68.36c0-37.77,30.61-68.38,68.38-68.38c9.935,0,19.368,2.112,27.885,5.923  c8.296-28.418,34.542-49.163,65.635-49.163c20.011,0,38.021,8.598,50.531,22.304c12.509-13.706,30.52-22.304,50.531-22.304  c31.093,0,57.338,20.745,65.635,49.163c8.517-3.811,17.95-5.923,27.885-5.923C437.813,53.296,468.423,83.906,468.423,121.676z"/>
<g>
	<path style="fill:#F7941E;" d="M235.882,446.697c0.004,24.667-19.597,50.781-44.342,54.754   c-12.106,2.492-53.856-3.983-91.909-19.003c-38.151-13.745-72.605-36.037-72.408-35.752c-0.196-0.286,34.257-0.368,72.409-8.997   c38.052-7.354,79.802-23.254,91.909-25.746C216.284,407.983,235.885,421.936,235.882,446.697z"/>
	<path style="fill:#F7941E;" d="M276.105,446.697c-0.004,24.667,19.597,50.781,44.342,54.754   c12.106,2.492,53.856-3.983,91.909-19.003c38.151-13.745,72.605-36.037,72.409-35.752c0.196-0.286-34.257-0.368-72.409-8.997   c-38.052-7.354-79.802-23.254-91.909-25.746C295.702,407.983,276.101,421.936,276.105,446.697z"/>
</g>
<g>
	<path style="fill:#231F20;" d="M100.128,199.232v161.774c0,5.554,4.502,10.056,10.056,10.056h291.62   c5.554,0,10.056-4.502,10.056-10.056V199.232c16.791-2.528,32.258-10.418,44.307-22.755c14.389-14.735,22.313-34.196,22.313-54.8   c0-43.249-35.186-78.436-78.436-78.436c-7.519,0-14.863,1.042-21.943,3.104C365.613,18.603,337.542,0,306.524,0   c-18.544,0-36.471,6.628-50.531,18.45C241.932,6.628,224.006,0,205.463,0c-31.019,0-59.09,18.603-71.577,46.344   c-7.08-2.062-14.425-3.104-21.943-3.104c-43.249,0-78.436,35.186-78.436,78.436c0,20.603,7.924,40.066,22.313,54.8   C67.869,188.814,83.336,196.704,100.128,199.232z M111.943,63.352c8.295,0,16.295,1.697,23.778,5.046   c2.654,1.187,5.69,1.167,8.327-0.051c2.638-1.22,4.619-3.521,5.433-6.31c7.205-24.684,30.226-41.925,55.981-41.925   c16.357,0,32.067,6.935,43.103,19.027c1.906,2.088,4.602,3.277,7.427,3.277c2.827,0,5.523-1.19,7.427-3.277   c11.036-12.092,26.747-19.027,43.103-19.027c25.755,0,48.775,17.241,55.982,41.925c0.815,2.789,2.796,5.09,5.433,6.31   c2.64,1.22,5.675,1.238,8.327,0.051c7.482-3.349,15.482-5.046,23.777-5.046c32.16,0,58.324,26.164,58.324,58.324   c0,31.889-24.958,57.501-56.819,58.307c-5.452,0.139-9.801,4.599-9.801,10.053v160.914H120.239V190.036   c0-5.454-4.349-9.914-9.801-10.053c-31.862-0.805-56.819-26.418-56.819-58.307C53.619,89.516,79.783,63.352,111.943,63.352z"/>
	<path style="fill:#231F20;" d="M230.877,411.996c-10.529-8.976-25.066-12.517-40.931-9.97c-0.146,0.023-0.29,0.049-0.433,0.079   c-4.744,0.976-12.441,3.434-23.092,6.836c-18.778,5.996-44.496,14.209-68.697,18.887c-0.104,0.02-0.207,0.042-0.311,0.064   c-30.763,6.958-58.683,8.184-67.858,8.588c-0.865,0.038-1.777,0.078-2.702,0.178c-3.628,0.121-6.883,2.172-8.544,5.381   c-1.685,3.257-1.468,7.264,0.59,10.303c0.008,0.011,0.016,0.022,0.036,0.052c1.1,1.624,2.682,2.644,4.34,3.657   c24.632,15.038,50.48,27.75,72.803,35.807c32.918,12.972,69.343,20.142,88.786,20.142c3.366,0,6.224-0.215,8.465-0.652   c28.539-4.701,52.608-34.255,52.606-64.652C245.939,432.599,240.591,420.276,230.877,411.996z M225.826,446.699   c0.003,20.809-16.763,41.754-35.88,44.824c-0.146,0.023-0.29,0.049-0.433,0.079c-9.106,1.876-48.748-3.729-86.189-18.507   c-0.094-0.037-0.188-0.072-0.284-0.107c-13.038-4.697-27.405-11.111-42.038-18.717c11.87-1.319,25.945-3.4,40.693-6.727   c25.321-4.907,51.626-13.307,70.842-19.444c9.129-2.915,17.036-5.44,20.821-6.252c9.861-1.534,18.543,0.4,24.472,5.454   C223.062,431.763,225.828,438.47,225.826,446.699C225.826,446.697,225.826,446.698,225.826,446.699z"/>
	<path style="fill:#231F20;" d="M494.306,443.519c-0.168-0.507-0.378-1.003-0.629-1.481c-1.243-2.401-2.928-3.735-4.759-4.491   c-1.148-0.522-2.429-0.845-3.785-0.89c-0.925-0.1-1.837-0.14-2.702-0.178c-9.175-0.403-37.096-1.63-67.858-8.588   c-0.104-0.023-0.207-0.044-0.311-0.064c-24.2-4.677-49.919-12.89-68.697-18.887c-10.652-3.402-18.349-5.86-23.092-6.836   c-0.144-0.029-0.289-0.056-0.433-0.079c-15.863-2.546-30.401,0.995-40.931,9.97c-9.714,8.28-15.062,20.602-15.061,34.7   c0,0,0,0,0,0.001s0,0.001,0,0.001c-0.002,30.394,24.068,59.948,52.606,64.649c2.242,0.437,5.097,0.652,8.465,0.652   c19.444-0.001,55.871-7.171,88.786-20.142c22.323-8.058,48.172-20.77,72.803-35.807c0.327-0.2,0.584-0.357,0.769-0.47   c1.386-0.734,2.621-1.805,3.571-3.188c0.003-0.005,0.007-0.011,0.011-0.016c0.001-0.001,0.001-0.002,0.002-0.003   c0.007-0.011,0.015-0.022,0.023-0.033l0,0c1.211-1.786,1.78-3.847,1.73-5.888C494.793,445.463,494.624,444.474,494.306,443.519z    M408.947,472.988c-0.096,0.034-0.189,0.07-0.284,0.107c-37.441,14.779-77.081,20.38-86.189,18.507   c-0.144-0.03-0.289-0.056-0.433-0.079c-19.117-3.069-35.883-24.014-35.88-44.824c0-0.001,0-0.002,0-0.003   c-0.001-8.229,2.763-14.935,7.995-19.395c4.603-3.924,10.866-5.966,18.052-5.966c2.07,0,4.215,0.169,6.42,0.512   c3.785,0.812,11.691,3.337,20.821,6.252c19.217,6.137,45.522,14.537,70.843,19.444c14.748,3.328,28.823,5.408,40.693,6.727   C436.352,461.878,421.985,468.29,408.947,472.988z M483.26,456.649c0.021,0.001,0.04,0.002,0.06,0.003   c1.961,0.283,3.97-0.022,5.755-0.867C487.39,456.6,485.326,456.951,483.26,456.649z"/>
	<path style="fill:#231F20;" d="M173.535,321.453c5.554,0,10.056-4.502,10.056-10.056V198.771c0-5.554-4.502-10.056-10.056-10.056   c-5.554,0-10.056,4.502-10.056,10.056v112.626C163.48,316.95,167.982,321.453,173.535,321.453z"/>
	<path style="fill:#231F20;" d="M255.993,209.833c5.554,0,10.056-4.502,10.056-10.056v-1.006c0-5.554-4.502-10.056-10.056-10.056   s-10.056,4.502-10.056,10.056v1.006C245.938,205.331,250.44,209.833,255.993,209.833z"/>
	<path style="fill:#231F20;" d="M255.993,321.453c5.554,0,10.056-4.502,10.056-10.056v-70.224c0-5.554-4.502-10.056-10.056-10.056   s-10.056,4.502-10.056,10.056v70.224C245.938,316.95,250.44,321.453,255.993,321.453z"/>
	<path style="fill:#231F20;" d="M338.451,321.453c5.554,0,10.056-4.502,10.056-10.056V198.771c0-5.554-4.502-10.056-10.056-10.056   s-10.056,4.502-10.056,10.056v112.626C328.396,316.95,332.898,321.453,338.451,321.453z"/>
</g>
<g>
</g>
<g>
</g>
<g>
</g>
<g>
</g>
<g>
</g>
<g>
</g>
<g>
</g>
<g>
</g>
<g>
</g>
<g>
</g>
<g>
</g>
<g>
</g>
<g>
</g>
<g>
</g>
<g>
</g>
</svg>
