<?xml version="1.0" encoding="utf-8"?><svg version="1.1" id="Layer_1" xmlns="http://www.w3.org/2000/svg" xmlns:xlink="http://www.w3.org/1999/xlink" x="0px" y="0px" width="122.883px" height="122.882px" viewBox="0 0 122.883 122.882" enable-background="new 0 0 122.883 122.882" xml:space="preserve"><g><path d="M61.441,0c16.967,0,32.327,6.877,43.446,17.996c11.119,11.119,17.996,26.479,17.996,43.445 c0,16.966-6.877,32.326-17.996,43.445c-11.119,11.118-26.479,17.995-43.446,17.995c-16.966,0-32.326-6.877-43.445-17.995 C6.877,93.768,0,78.407,0,61.441c0-16.967,6.877-32.327,17.996-43.445C29.115,6.877,44.475,0,61.441,0L61.441,0z M71.377,42.166 c1.736-1.784,1.695-4.637-0.088-6.372s-4.637-1.696-6.373,0.088L43.078,58.402l3.23,3.142l-3.244-3.146 c-1.737,1.792-1.693,4.652,0.099,6.39c0.052,0.05,0.104,0.099,0.158,0.146l21.595,22.082c1.736,1.784,4.59,1.823,6.373,0.088 c1.783-1.734,1.824-4.588,0.088-6.372L52.598,61.531L71.377,42.166L71.377,42.166z M98.496,24.386 C89.014,14.903,75.912,9.038,61.441,9.038s-27.572,5.865-37.055,15.348C14.903,33.869,9.038,46.97,9.038,61.441 c0,14.471,5.865,27.572,15.349,37.055c9.482,9.483,22.583,15.349,37.055,15.349s27.573-5.865,37.055-15.349 c9.484-9.482,15.35-22.584,15.35-37.055C113.846,46.97,107.98,33.869,98.496,24.386L98.496,24.386z"/></g></svg>